# xmcd
#
# Track frame offsets:
#	150
#	12315
#	24922
#	36907
#	49017
#	71155
#	83402
#	97265
#	112985
#	130992
#	140980
#	151635
#
# Disc length: 2191 seconds
# Revision: 4
# Processed by: cddbd v1.5.2PL0 Copyright (c) Steve Scherf et al.
# Submitted via: dBpowerAMP V12.0
#
DISCID=9a088d0c
DTITLE=Dolly Parton - Dolly Parton: 36 All-Time Greatest Hits [Disc 1]
DYEAR=1993
DGENRE=Country
TTITLE0=9 To 5
TTITLE1=In The Good Old Days
TTITLE2=Jolene
TTITLE3=Touch Your Women
TTITLE4=Light Of A Clear Blue Morning
TTITLE5=The Bargain Store
TTITLE6=Coat Of Many Colors
TTITLE7=My Blue Ridge Mountain Boy
TTITLE8=Do I Ever Cross Your Mind
TTITLE9=Traveling Man
TTITLE10=Love Is Like A Butterfly
TTITLE11=Higher and Higher (Your Love Has Lifted Me)
EXTD=
EXTT0=
EXTT1=
EXTT2=
EXTT3=
EXTT4=
EXTT5=
EXTT6=
EXTT7=
EXTT8=
EXTT9=
EXTT10=
EXTT11=
PLAYORDER=
